<?xml version="1.0" encoding="utf-8"?>
<!-- Generator: Adobe Illustrator 24.3.0, SVG Export Plug-In . SVG Version: 6.00 Build 0)  -->
<svg version="1.1" id="Layer_1" xmlns="http://www.w3.org/2000/svg" xmlns:xlink="http://www.w3.org/1999/xlink" x="0px" y="0px"
	 viewBox="0 0 1113.66 184.18" style="enable-background:new 0 0 1113.66 184.18;" xml:space="preserve">
<style type="text/css">
	.st0{fill:#FFFFFF;}
	.st1{fill:none;}
	.st2{fill:#79242F;}
	.st3{fill:#A46567;}
	.st4{fill:#F5A800;}
	.st5{fill:#004A98;}
</style>
<g id="Layer_2_1_">
	<g id="Layer_1-2">
		<path class="st0" d="M277.05,78.36c7.27,0,12.35,1.93,15.51,3.85l2.33-5.35c-2.47-1.79-9.2-4.12-17.29-4.12
			c-19.63,0-33.9,14.13-33.9,35.13c0,19.76,12.63,33.62,31.57,33.62c6.682,0.039,13.289-1.413,19.34-4.25l-1.78-5.24
			c-5.113,2.556-10.754,3.874-16.47,3.85c-15.23,0-26.07-11.26-26.07-28.55C250.29,91.81,259.35,78.36,277.05,78.36z"/>
		<path class="st0" d="M336.06,72.74c-16.33,0-31.15,12.49-31.15,35c0,20.59,13.18,33.9,30.19,33.9h0.14
			c14.55,0,31.43-10.57,31.43-35C366.67,86.46,354.31,72.74,336.06,72.74z M335.51,136.14h-0.13c-13.45,0-23.88-12.35-23.88-28.82
			c0-14.13,7.55-29.09,24.43-29.09c17.42,0,24.15,16.6,24.15,28.68C360.08,123.79,349.24,136.14,335.51,136.14z"/>
		<rect x="383.41" y="42.55" class="st0" width="6.59" height="97.57"/>
		<rect x="412.51" y="42.55" class="st0" width="6.59" height="97.57"/>
		<path class="st0" d="M465.76,72.74c-17,0-29.65,13.72-29.65,35.68c0,19.35,11.8,33.07,30.74,33.07c11.53,0,18.26-2.88,20.73-4.25
			l-1.65-5.08c-3.71,1.78-8.65,3.71-18.25,3.71c-13.59,0-25.12-8.38-25.12-29.37h48.58c0.254-1.317,0.348-2.66,0.28-4
			C491.42,93.05,487.3,72.74,465.76,72.74z M443,101.28c1.24-10.15,7.41-23,22-23c15.92,0,19.76,13.86,19.63,23H443z"/>
		<path class="st0" d="M536,78.36c7.27,0,12.35,1.93,15.51,3.85l2.33-5.35c-2.47-1.79-9.19-4.12-17.29-4.12
			c-19.62,0-33.9,14.13-33.9,35.13c0,19.76,12.63,33.62,31.57,33.62c6.686,0.038,13.296-1.413,19.35-4.25L551.8,132
			c-5.113,2.556-10.754,3.874-16.47,3.85c-15.23,0-26.07-11.26-26.07-28.55C509.26,91.81,518.32,78.36,536,78.36z"/>
		<path class="st0" d="M579.94,59.7l-6.59,2.47v12.08h-11.12v5.35h11.12v41.58c0,6.73,1.1,12.35,4.12,15.78
			c2.47,3,6.45,4.53,11.25,4.53c3.132,0.052,6.248-0.46,9.2-1.51l-0.83-4.94c-2.449,0.725-4.997,1.063-7.55,1
			c-7,0-9.6-5.21-9.6-13.58V79.6h18.8v-5.35h-18.8V59.7z"/>
		<path class="st0" d="M616.58,49.68c-3.052,0.156-5.424,2.715-5.35,5.77c0,3,2.06,5.62,5.08,5.62h0.13
			c2.944,0.021,5.347-2.348,5.368-5.292c0.001-0.109-0.002-0.219-0.008-0.328C621.8,52.29,619.6,49.68,616.58,49.68z"/>
		<rect x="613.29" y="74.25" class="st0" width="6.59" height="65.87"/>
		<path class="st0" d="M667.63,72.74c-16.33,0-31.15,12.49-31.15,35c0,20.59,13.18,33.9,30.19,33.9h0.14
			c14.55,0,31.43-10.57,31.43-35C698.24,86.46,685.88,72.74,667.63,72.74z M667.08,136.14H667c-13.45,0-23.88-12.35-23.88-28.82
			c0-14.13,7.55-29.09,24.43-29.09c17.43,0,24.15,16.6,24.15,28.68C691.65,123.79,680.81,136.14,667.08,136.14z"/>
		<path class="st0" d="M743.94,72.74c-10.71,0-19.08,5.9-22.64,13.31H721l-0.41-11.8h-6.18c0.42,5.21,0.55,9.74,0.55,15.78v50.09
			h6.59V99.23c0.032-1.95,0.308-3.888,0.82-5.77C725,84.82,733,78.23,742.16,78.23c13.58,0,18.25,10.84,18.25,22.91v39H767V100.6
			C767,75.89,750.25,72.74,743.94,72.74z"/>
		<path class="st0" d="M812.29,47.63l-31.43,92.49h12.35l9.61-29.1h32.8l9.88,29.1h12.76L826.7,47.63H812.29z M805.29,101.69
			l9.06-26.76c1.78-5.62,3.29-11.25,4.66-16.74h0.28c1.37,5.35,2.74,10.84,4.8,16.88l9.06,26.62H805.29z"/>
		<path class="st0" d="M882,86.74h-0.55l-0.41-13h-10.56c0.41,6.17,0.55,12.9,0.55,20.72v45.7H883v-35.45
			c0.024-1.886,0.208-3.766,0.55-5.62c1.64-9.06,7.68-15.51,16.19-15.51c1.384-0.018,2.766,0.119,4.12,0.41V72.6
			c-1.121-0.286-2.274-0.423-3.43-0.41C892.3,72.19,885,77.82,882,86.74z"/>
		<path class="st0" d="M933.75,54.62l-11.81,3.16V73.7h-10.29v9.19h10.29v36.23c0,7.82,1.24,13.73,4.67,17.29
			c2.88,3.3,7.41,5.08,13,5.08c3.638,0.114,7.265-0.446,10.7-1.65l-0.55-9.05c-2.287,0.578-4.641,0.854-7,0.82
			c-6.72,0-9-4.67-9-12.9V82.89H951V73.7h-17.25V54.62z"/>
		<path class="st0" d="M1023.22,86.32c0,14.41,0.28,25.67,1.38,38l-0.28,0.14c-4.867-10.374-10.412-20.416-16.6-30.06l-29.65-46.77
			H965v92.49h11.25V100.6c0-15.37-0.27-26.49-1-38.15l0.41-0.14c5.156,10.631,10.947,20.943,17.34,30.88l29.37,46.93h12.08V47.63
			h-11.26L1023.22,86.32z"/>
		<path class="st0" d="M1094.59,90.58V90.3c9.74-3.56,15.64-11.39,15.64-20.31c0-7.27-2.88-12.76-7.68-16.33
			c-5.76-4.66-13.45-6.72-25.39-6.72c-7.318-0.052-14.624,0.591-21.82,1.92v91c6.145,0.778,12.336,1.146,18.53,1.1
			c15.09,0,25.52-2.74,32-8.64c5.093-4.804,7.931-11.529,7.82-18.53C1113.66,100.05,1103.37,92.77,1094.59,90.58z M1067.28,57
			c3.484-0.647,7.027-0.925,10.57-0.83c12.08,0,20.31,4.26,20.31,15.1c0,8.92-7.41,15.51-20,15.51h-10.84L1067.28,57z
			 M1077.28,131.65c-3.343,0.078-6.686-0.105-10-0.55V95.79h9.88c13,0,23.88,5.22,23.88,17.84c-0.04,13.45-11.39,17.98-23.74,17.98
			L1077.28,131.65z"/>
		<path class="st1" d="M152.38,127.83c-0.234,0.29-0.392,0.634-0.46,1c0.005,0.036,0.005,0.074,0,0.11c0,0,0,0,0,0.05
			c0.053,0.064,0.118,0.118,0.19,0.16c0.495,0.242,1.031,0.388,1.58,0.43c0.41-1.37,0.75-2.73,1-4.1
			C153.836,126.176,153.061,126.964,152.38,127.83z"/>
		<path class="st1" d="M156.73,123.87c3.356-2.4,6.83-4.629,10.41-6.68c3.57-2.12,7.19-4.15,10.84-6.14
			c-7.55,3.51-15.1,7-22.18,11.55c-0.2,0.13-0.39,0.28-0.59,0.42c-0.13,0.8-0.28,1.6-0.45,2.41
			C155.4,124.89,156.07,124.37,156.73,123.87z"/>
		<path class="st2" d="M193.74,154.73c-6.26,1.333-12.52,2.63-18.78,3.89c-8.18,1.64-16.35,3.29-24.47,5.09
			c-4.06,0.9-8.1,1.84-12.08,2.87c-2,0.52-4,1.06-5.88,1.67c-0.49,0.16-1,0.31-1.43,0.48l0.64,0.09c2,0.25,4,0.39,6.09,0.5
			c4.12,0.21,8.28,0.28,12.44,0.34c8.33,0.1,16.68,0,25-0.16c3.46-0.05,6.92-0.12,10.38-0.19
			C188.815,164.725,191.525,159.842,193.74,154.73z"/>
		<path class="st3" d="M127.89,168L127.89,168h0.05H127.89z"/>
		<path class="st2" d="M149.31,158.87c8.16-1.94,16.33-3.73,24.5-5.5c5.08-1.11,10.17-2.17,15.25-3.26l-9.4,0.82
			c-8.35,0.69-16.69,1.44-25.16,1.72c-2.12,0.07-4.25,0.11-6.41,0.07c-1.08,0-2.17-0.06-3.29-0.15
			c-1.066-0.073-2.125-0.22-3.17-0.44c-3.367,4.262-7.065,8.251-11.06,11.93l0.41-0.15c2.05-0.72,4.08-1.33,6.11-1.91
			C141.16,160.85,145.24,159.85,149.31,158.87z"/>
		<path class="st2" d="M126.47,172.18c-0.16-0.05-0.37-0.16-0.56-0.24l-0.28-0.13c-0.127-0.07-0.251-0.147-0.37-0.23
			c-0.306-0.197-0.574-0.447-0.79-0.74c-0.146-0.196-0.277-0.403-0.39-0.62c0-0.15-0.1-0.29-0.14-0.44c-2.11,1.7-4.3,3.38-6.61,5
			c-1.948,1.372-2.739,3.878-1.93,6.12c0.322,1.107,1.061,2.046,2.06,2.62l0.51,0.31h0.12c0.607,0.238,1.258,0.347,1.91,0.32
			l53.88-2.47c0.976-0.045,1.913-0.395,2.68-1h0.05l0.11-0.13c0.25-0.214,0.472-0.459,0.66-0.73c2.332-2.584,4.531-5.284,6.59-8.09
			l-8.56,0.56c-8.35,0.47-16.72,0.88-25.11,1.09c-4.2,0.11-8.4,0.14-12.64,0c-2.12-0.06-4.24-0.14-6.41-0.35
			c-1.132-0.096-2.257-0.26-3.37-0.49c-0.3-0.08-0.58-0.12-0.92-0.24L126.47,172.18z"/>
		<path class="st2" d="M171.84,132.84c4-1.26,2.26-0.61,6.2-1.9c1.54-0.51,8.77-2.94,10.29-3.48l-3,0.37c-4.14,0.53-14,3-18.17,3.46
			c-2.09,0.22-4.19,0.41-6.31,0.53c-2.15,0.17-4.31,0.17-6.46,0c-0.45-0.05-0.9-0.13-1.36-0.22c-1.044,3.047-2.321,6.009-3.82,8.86
			C156.76,137.57,164.31,135.23,171.84,132.84z"/>
		<path class="st2" d="M108.38,58.43c-2.551,0.661-4.246,3.076-4,5.7c0.277,2.639,2.413,4.695,5.06,4.87
			c21.44,1.55,38.91,14.79,44.51,33.73c1.931,6.577,2.362,13.504,1.26,20.27c0.2-0.14,0.39-0.29,0.59-0.42
			c7.08-4.53,14.63-8,22.18-11.55c-3.65,2-7.27,4-10.84,6.14c-3.58,2.051-7.054,4.28-10.41,6.68c-0.66,0.5-1.33,1-2,1.56
			c-0.29,1.37-0.63,2.73-1,4.1c0.3,0,0.61,0.07,0.91,0.09c2.024,0.063,4.05-0.027,6.06-0.27c2.05-0.21,4.1-0.5,6.15-0.81
			c4.11-0.62,13.91-3.23,18-3.92c2.07-0.34,4.14-0.68,6.26-1c1.07-0.14,2.13-0.26,3.29-0.31c0.69-0.039,1.382,0.008,2.06,0.14
			c0.359,0.078,0.7,0.228,1,0.44c0.131,0.086,0.252,0.186,0.36,0.3c0.165,0.188,0.3,0.401,0.4,0.63
			c0.186,0.437,0.214,0.925,0.08,1.38c-0.041,0.143-0.098,0.28-0.17,0.41c-0.061,0.11-0.128,0.217-0.2,0.32
			c-0.095,0.13-0.202,0.251-0.32,0.36c-0.159,0.163-0.333,0.31-0.52,0.44c-0.981,0.654-2.023,1.214-3.11,1.67c-1,0.44-2,0.85-3,1.23
			c-2,0.78-4,1.5-5.92,2.21c-3.94,1.41-7.89,2.76-11.83,4.13s-7.87,2.72-11.77,4.12s-7.8,2.8-11.57,4.36
			c-1.44,0.6-2.88,1.22-4.22,1.89c0.79,0,1.59,0.07,2.41,0.07c2,0,4.07-0.07,6.13-0.16c8.24-0.42,16.55-1.13,24.86-1.89
			c6.1-0.55,12.19-1.15,18.33-1.66c4.48-17.77,1.66-35.9-8.78-52.27C171.45,64.43,137.67,50.54,108.38,58.43z"/>
		<path class="st4" d="M66.72,122.34c1.988,1.783,4.955,1.921,7.1,0.33c2.125-1.546,2.786-4.421,1.55-6.74
			c-9.91-18.57-7.52-40,6.09-54.58c3.659-3.911,7.949-7.18,12.69-9.67c-1.19-0.61-2.39-1.21-3.59-1.77c-2.08-1-4.2-1.87-6.33-2.77
			c-2.15-0.902-4.367-1.637-6.63-2.2c-4.589-1.055-9.293-1.526-14-1.4c-4.462,0.108-8.897,0.722-13.22,1.83
			C39.84,72.46,46.2,103.82,66.72,122.34z"/>
		<path class="st4" d="M70.81,41.12c2.495,0.056,4.984,0.276,7.45,0.66c1.23,0.22,2.48,0.38,3.69,0.69l1.84,0.41l1.83,0.5
			c2.419,0.708,4.741,1.716,6.91,3c1.8,1.055,3.503,2.266,5.09,3.62c17.28-7.51,40.34-6.36,66.13,3.75
			c2.247,0.889,4.812,0.236,6.36-1.62c0.793-0.827,1.228-1.934,1.21-3.08c0.01-0.193,0.01-0.387,0-0.58l-0.07-0.1
			c-0.105-0.63-0.351-1.229-0.72-1.75l-30.48-43.3c-0.563-0.794-1.366-1.386-2.29-1.69l0,0h-0.17c-0.327-0.088-0.662-0.145-1-0.17
			C108.43-3.2,83.79,3.63,67,20c1.79-0.49,3.59-0.95,5.41-1.35c7.881-1.764,15.925-2.696,24-2.78c8.08,0,16.35,0.3,24.19,2.58
			c3.91,1.094,7.723,2.509,11.4,4.23c3.656,1.691,7.122,3.766,10.34,6.19l-0.24,0.46c-3.87-1.11-7.65-2.22-11.43-3.22
			s-7.56-1.87-11.36-2.63s-7.58-1.43-11.4-2.11c-1-0.2-1.91-0.32-2.87-0.45l-2.89-0.41c-1.927-0.193-3.863-0.357-5.81-0.49
			c-3.901-0.2-7.809-0.2-11.71,0c-3.917,0.174-7.822,0.548-11.7,1.12c-2.87,0.4-5.71,0.91-8.54,1.51
			c-2.671,2.913-5.089,6.048-7.23,9.37c1.06-0.3,2.13-0.58,3.2-0.84c7.414-1.75,15.025-2.527,22.64-2.31
			c7.61,0.17,15.44,0.87,22.66,3.62c3.6,1.33,7.062,3.004,10.34,5c3.264,1.947,6.268,4.299,8.94,7l-0.31,0.42
			c-3.48-1.46-6.88-2.86-10.3-4.12s-6.89-2.33-10.36-3.3s-7-1.85-10.47-2.65c-3.536-0.896-7.137-1.511-10.77-1.84
			c-1.81-0.2-3.63-0.23-5.45-0.32c-0.92,0-1.83,0-2.74,0h-1.37l-1.37,0.06c-3.668,0.099-7.325,0.433-10.95,1
			c-1.8,0.26-3.59,0.577-5.37,0.95c-0.72,1.23-1.42,2.47-2.07,3.75c-1,2-2,4.12-2.81,6.22c4.125-1.549,8.418-2.609,12.79-3.16
			C65.853,41.213,68.331,41.086,70.81,41.12z"/>
		<path class="st5" d="M34.71,162c-1.946-3.427-4.652-6.362-7.91-8.58c-1.635-1.127-3.462-1.947-5.39-2.42
			c-0.965-0.235-1.96-0.316-2.95-0.24c-1.002,0.107-1.974,0.409-2.86,0.89c6.006,7.351,13.412,13.436,21.79,17.9
			C36.954,166.894,36.046,164.337,34.71,162z"/>
		<path class="st5" d="M53.27,156.14c-1.857-4.136-4.622-7.8-8.09-10.72c-0.87-0.75-1.82-1.43-2.71-2.15s-2-1.27-2.93-1.9
			c-1.888-1.137-3.901-2.049-6-2.72c-4.125-1.307-8.477-1.743-12.78-1.28c-4.346,0.456-8.534,1.877-12.26,4.16
			c2.024,3.371,4.283,6.596,6.76,9.65c0.765-0.871,1.72-1.555,2.79-2c1.159-0.447,2.388-0.684,3.63-0.7
			c2.449-0.015,4.872,0.504,7.1,1.52c4.433,1.945,8.219,5.116,10.91,9.14c2.66,3.881,3.968,8.531,3.72,13.23
			c3.563,1.46,7.243,2.617,11,3.46c0.515-2.084,0.85-4.209,1-6.35c0.178-2.282,0.094-4.577-0.25-6.84
			C54.81,160.402,54.175,158.217,53.27,156.14z"/>
		<path class="st5" d="M57.49,176.42c5.447,0.965,10.983,1.331,16.51,1.09c32.67-1.34,61.69-23.16,69-51.88
			c0.637-2.559-0.694-5.199-3.13-6.21c-2.443-1.053-5.289-0.242-6.81,1.94c-11.92,17.42-32.35,25.74-52,21.19
			c-6.373-1.472-12.385-4.21-17.68-8.05c0.68,1,1.32,2.09,1.9,3.17c1.856,3.539,3.277,7.289,4.23,11.17
			c0.916,3.829,1.468,7.737,1.65,11.67c0.219,3.904,0.051,7.819-0.5,11.69h-0.45c0.373-7.686-0.612-15.377-2.91-22.72
			c-1.13-3.62-2.684-7.095-4.63-10.35c-1.956-3.214-4.375-6.122-7.18-8.63c-2.828-2.484-6.031-4.506-9.49-5.99
			c-3.437-1.507-7.019-2.659-10.69-3.44c-1.839-0.401-3.703-0.671-5.58-0.81c-1.892-0.162-3.793-0.199-5.69-0.11
			c-1.925,0.093-3.843,0.31-5.74,0.65c-1,0.16-1.9,0.37-2.85,0.61c-0.48,0.12-1,0.25-1.41,0.4c-0.452,0.126-0.893,0.286-1.32,0.48
			l-0.34-0.3c0.768-0.708,1.625-1.314,2.55-1.8c0.897-0.493,1.818-0.94,2.76-1.34c1.916-0.783,3.902-1.386,5.93-1.8
			c8.286-1.686,16.9-0.453,24.38,3.49c1.12,0.59,2.2,1.25,3.26,1.93C42.62,111,36.8,95.22,34.4,76.09
			c-0.322-2.376-2.162-4.261-4.53-4.64c-1.139-0.263-2.334-0.1-3.36,0.46c-0.179,0.087-0.352,0.184-0.52,0.29v0.1
			c-0.513,0.394-0.932,0.896-1.23,1.47l-24.28,46.9c-0.438,0.853-0.582,1.827-0.41,2.77l0,0l0.06,0.16
			c0.075,0.318,0.186,0.627,0.33,0.92c1.505,4.185,3.289,8.264,5.34,12.21c3.899-3.412,8.633-5.727,13.72-6.71
			c2.802-0.55,5.67-0.681,8.51-0.39c2.826,0.314,5.591,1.035,8.21,2.14c2.539,1.129,4.938,2.549,7.15,4.23
			c1,0.82,2.07,1.63,3.09,2.47s2,1.75,2.91,2.69c3.828,3.714,6.771,8.243,8.61,13.25c0.848,2.499,1.373,5.097,1.56,7.73
			c0.165,2.583,0.038,5.176-0.38,7.73C58.797,172.096,58.232,174.287,57.49,176.42z"/>
	</g>
</g>
</svg>
