<?xml version="1.0" encoding="utf-8"?>
<!-- Generator: Adobe Illustrator 23.0.2, SVG Export Plug-In . SVG Version: 6.00 Build 0)  -->
<svg version="1.1" id="Layer_1" xmlns="http://www.w3.org/2000/svg" xmlns:xlink="http://www.w3.org/1999/xlink" x="0px" y="0px"
	 viewBox="0 0 150 28" style="enable-background:new 0 0 150 28;" xml:space="preserve">
<style type="text/css">
	.st0{fill:#FFFFFF;}
</style>
<g>
	<rect x="36.8" y="4.3" class="st0" width="0.4" height="19.6"/>
	<g>
		<path class="st0" d="M43.9,10.6h1.6l1.6,5.8h0.1l1.6-5.8h1.6l1.6,5.8H52l1.5-5.8h1.6l-2.3,7.9h-1.6l-1.6-5.7h-0.1l-1.6,5.7h-1.6
			L43.9,10.6z"/>
		<path class="st0" d="M56,14.7c0-2.4,1.5-4.1,3.7-4.1c1.8,0,3.5,1.1,3.5,4v0.5h-5.7c0,1.5,0.9,2.4,2.3,2.4c0.9,0,1.6-0.4,1.8-1.1
			l1.5,0.3c-0.4,1.3-1.6,2.1-3.3,2.1C57.4,18.8,56,17.1,56,14.7z M61.6,13.9c0-1.2-0.8-2.1-2-2.1c-1.3,0-2.1,1-2.1,2.1H61.6z"/>
		<path class="st0" d="M65,8h1.5v3.9h0.1c0.3-0.5,0.8-1.4,2.3-1.4c1.9,0,3.3,1.5,3.3,4.1c0,2.6-1.4,4.1-3.3,4.1
			c-1.4,0-2-0.9-2.3-1.4h-0.1v1.2H65V8z M68.6,17.4c1.4,0,2.1-1.2,2.1-2.8c0-1.6-0.7-2.8-2.1-2.8c-1.4,0-2.1,1.1-2.1,2.8
			C66.5,16.3,67.3,17.4,68.6,17.4z"/>
		<path class="st0" d="M78.6,12.8c-0.2-0.5-0.6-1.1-1.6-1.1c-0.9,0-1.5,0.4-1.5,1c0,0.5,0.4,0.8,1.2,1l1.3,0.3
			c1.5,0.3,2.2,1,2.2,2.2c0,1.4-1.3,2.5-3.3,2.5c-1.8,0-3-0.8-3.2-2.2l1.5-0.2c0.2,0.8,0.8,1.2,1.7,1.2c1,0,1.7-0.5,1.7-1.1
			c0-0.5-0.4-0.8-1.1-1l-1.3-0.3c-1.5-0.3-2.2-1.1-2.2-2.2c0-1.4,1.3-2.4,3.1-2.4c1.7,0,2.7,0.8,3,2L78.6,12.8z"/>
		<path class="st0" d="M81.5,14.7c0-2.5,1.5-4.1,3.7-4.1c2.2,0,3.7,1.6,3.7,4.1c0,2.5-1.5,4.1-3.7,4.1
			C82.9,18.8,81.5,17.1,81.5,14.7z M87.3,14.7c0-1.5-0.7-2.8-2.1-2.8c-1.5,0-2.1,1.3-2.1,2.8c0,1.5,0.7,2.8,2.1,2.8
			C86.6,17.5,87.3,16.2,87.3,14.7z"/>
		<path class="st0" d="M92.1,18.6h-1.5V8h1.5V18.6z"/>
		<path class="st0" d="M99.2,10.6h1.6v7.9h-1.5v-1.4h-0.1c-0.4,0.8-1.2,1.5-2.4,1.5c-1.5,0-2.6-1-2.6-3v-5.1h1.5v4.9
			c0,1.1,0.7,1.8,1.6,1.8c0.9,0,1.9-0.6,1.9-2V10.6z"/>
		<path class="st0" d="M106.6,11.9H105v4.4c0,0.9,0.5,1.1,1,1.1c0.2,0,0.4,0,0.5-0.1l0.3,1.3c-0.2,0.1-0.5,0.2-1,0.2
			c-1.2,0-2.3-0.7-2.3-2.1v-4.7h-1.2v-1.2h1.2V8.7h1.5v1.9h1.6V11.9z"/>
		<path class="st0" d="M108.1,8.5c0-0.5,0.4-0.9,1-0.9c0.5,0,1,0.4,1,0.9c0,0.5-0.4,0.9-1,0.9C108.5,9.4,108.1,9,108.1,8.5z
			 M108.3,10.6h1.5v7.9h-1.5V10.6z"/>
		<path class="st0" d="M111.6,14.7c0-2.5,1.5-4.1,3.7-4.1c2.2,0,3.7,1.6,3.7,4.1c0,2.5-1.5,4.1-3.7,4.1
			C113,18.8,111.6,17.1,111.6,14.7z M117.4,14.7c0-1.5-0.7-2.8-2.1-2.8c-1.5,0-2.1,1.3-2.1,2.8c0,1.5,0.7,2.8,2.1,2.8
			C116.7,17.5,117.4,16.2,117.4,14.7z"/>
		<path class="st0" d="M122.2,18.6h-1.5v-7.9h1.5v1.3h0.1c0.4-0.8,1.1-1.4,2.3-1.4c1.6,0,2.7,1,2.7,3v5.1h-1.5v-4.9
			c0-1.2-0.6-1.8-1.7-1.8c-1.1,0-1.9,0.7-1.9,2V18.6z"/>
		<path class="st0" d="M134,12.8c-0.2-0.5-0.6-1.1-1.6-1.1c-0.9,0-1.5,0.4-1.5,1c0,0.5,0.4,0.8,1.2,1l1.3,0.3c1.5,0.3,2.2,1,2.2,2.2
			c0,1.4-1.3,2.5-3.3,2.5c-1.8,0-3-0.8-3.2-2.2l1.5-0.2c0.2,0.8,0.8,1.2,1.7,1.2c1,0,1.7-0.5,1.7-1.1c0-0.5-0.4-0.8-1.1-1l-1.3-0.3
			c-1.5-0.3-2.2-1.1-2.2-2.2c0-1.4,1.3-2.4,3.1-2.4c1.7,0,2.7,0.8,3,2L134,12.8z"/>
		<path class="st0" d="M136.8,18.1c0-0.3,0.3-0.6,0.6-0.6c0.3,0,0.6,0.3,0.6,0.6c0,0.3-0.3,0.6-0.6,0.6
			C137,18.7,136.8,18.4,136.8,18.1z"/>
		<path class="st0" d="M139,16.3c0-1.4,0.8-2.4,2.2-2.4c1.1,0,1.8,0.6,1.9,1.6h-0.9c-0.1-0.4-0.4-0.8-1-0.8c-0.8,0-1.3,0.6-1.3,1.6
			c0,1,0.5,1.6,1.3,1.6c0.5,0,0.9-0.3,1-0.8h0.9c-0.1,0.9-0.8,1.6-1.9,1.6C139.8,18.7,139,17.7,139,16.3z"/>
		<path class="st0" d="M143.8,17.3c0-1.1,0.9-1.3,1.8-1.4c0.8-0.1,1.2-0.1,1.2-0.4v0c0-0.5-0.3-0.8-0.9-0.8c-0.6,0-0.9,0.3-1.1,0.6
			l-0.8-0.2c0.3-0.8,1.1-1.2,1.9-1.2c0.7,0,1.8,0.3,1.8,1.6v3.1h-0.9V18h0c-0.2,0.3-0.6,0.7-1.4,0.7
			C144.5,18.7,143.8,18.2,143.8,17.3z M146.8,16.9v-0.6c-0.1,0.1-0.8,0.2-1.1,0.2c-0.5,0.1-1,0.2-1,0.7c0,0.4,0.4,0.7,0.9,0.7
			C146.3,18,146.8,17.5,146.8,16.9z"/>
	</g>
	<g>
		<path class="st0" d="M2.3,4.1h5.3L8.5,17h0.2l5.5-11h4.3l1.3,11h0.2L25,4.1h5.3l-8.6,19.7h-4.9l-1.5-10h-0.2l-5.5,10H4.5L2.3,4.1z
			"/>
	</g>
</g>
</svg>
